# Blender v2.83.1 OBJ File: ''
# www.blender.org
mtllib prism.mtl
o Cylinder
v -0.007776 0.147955 0.134486
v 0.007776 0.147955 0.134486
v -0.006308 0.147955 0.136620
v -0.004648 0.147955 0.138280
v -0.002846 0.147955 0.139416
v -0.000958 0.147955 0.139992
v 0.000958 0.147955 0.139992
v 0.002846 0.147955 0.139416
v 0.004648 0.147955 0.138280
v 0.006308 0.147955 0.136620
v 0.007776 -0.147955 0.134486
v -0.007776 -0.147955 0.134486
v 0.006308 -0.147955 0.136620
v 0.004648 -0.147955 0.138280
v 0.002846 -0.147955 0.139416
v 0.000958 -0.147955 0.139992
v -0.000958 -0.147955 0.139992
v -0.002846 -0.147955 0.139416
v -0.004648 -0.147955 0.138280
v -0.006308 -0.147955 0.136620
v 0.120356 0.147955 -0.060509
v 0.112580 0.147955 -0.073977
v 0.121470 0.147955 -0.062848
v 0.122078 0.147955 -0.065115
v 0.122161 0.147955 -0.067243
v 0.121716 0.147955 -0.069166
v 0.120758 0.147955 -0.070826
v 0.119315 0.147955 -0.072173
v 0.117430 0.147955 -0.073165
v 0.115163 0.147955 -0.073773
v 0.112580 -0.147955 -0.073977
v 0.120356 -0.147955 -0.060509
v 0.115163 -0.147955 -0.073773
v 0.117430 -0.147955 -0.073165
v 0.119315 -0.147955 -0.072173
v 0.120758 -0.147955 -0.070826
v 0.121716 -0.147955 -0.069166
v 0.122161 -0.147955 -0.067243
v 0.122078 -0.147955 -0.065115
v 0.121470 -0.147955 -0.062848
v -0.112580 0.147955 -0.073977
v -0.120356 0.147955 -0.060509
v -0.115163 0.147955 -0.073773
v -0.117430 0.147955 -0.073165
v -0.119315 0.147955 -0.072173
v -0.120758 0.147955 -0.070826
v -0.121716 0.147955 -0.069166
v -0.122161 0.147955 -0.067243
v -0.122078 0.147955 -0.065115
v -0.121470 0.147955 -0.062848
v -0.120356 -0.147955 -0.060509
v -0.112580 -0.147955 -0.073977
v -0.121470 -0.147955 -0.062848
v -0.122078 -0.147955 -0.065115
v -0.122161 -0.147955 -0.067243
v -0.121716 -0.147955 -0.069166
v -0.120758 -0.147955 -0.070826
v -0.119315 -0.147955 -0.072173
v -0.117430 -0.147955 -0.073165
v -0.115163 -0.147955 -0.073773
vt 0.313104 1.000000
vt 0.020229 0.500000
vt 0.313104 0.500000
vt 0.646437 1.000000
vt 0.353563 0.500000
vt 0.646437 0.500000
vt 0.254533 0.710111
vt 0.067381 0.130000
vt 0.054768 0.151848
vt 0.979771 1.000000
vt 0.686896 0.500000
vt 0.979771 0.500000
vt 0.020229 1.000000
vt 0.016870 0.500000
vt 0.016870 1.000000
vt 0.013920 0.500000
vt 0.013920 1.000000
vt 0.011470 0.500000
vt 0.011470 1.000000
vt 0.009592 0.500000
vt 0.009592 1.000000
vt -0.000000 0.500000
vt 0.990407 1.000000
vt 0.988530 0.500000
vt 0.990408 0.500000
vt 0.988530 1.000000
vt 0.986080 0.500000
vt 0.986080 1.000000
vt 0.983130 0.500000
vt 0.983130 1.000000
vt 0.578800 0.710111
vt 0.745467 0.376777
vt 0.581993 0.710439
vt 0.748660 0.377106
vt 0.584646 0.710976
vt 0.751312 0.377642
vt 0.586677 0.711704
vt 0.753344 0.378370
vt 0.599986 0.712601
vt 0.766652 0.379268
vt 0.601477 0.713641
vt 0.768144 0.380308
vt 0.603066 0.714792
vt 0.769733 0.381458
vt 0.604704 0.716018
vt 0.771371 0.382685
vt 0.686896 1.000000
vt 0.228629 0.716018
vt 0.395296 0.382685
vt 0.230267 0.714792
vt 0.396934 0.381458
vt 0.231856 0.713641
vt 0.398523 0.380308
vt 0.233348 0.712601
vt 0.400014 0.379268
vt 0.246656 0.711704
vt 0.413323 0.378370
vt 0.248688 0.710976
vt 0.415354 0.377642
vt 0.251340 0.710439
vt 0.418007 0.377106
vt 0.421200 0.376777
vt 0.353563 1.000000
vt 0.554768 0.151848
vt 0.567381 0.130000
vt 0.432619 0.130000
vt 0.445232 0.151848
vt 0.262614 0.468152
vt 0.260232 0.471614
vt 0.237386 0.468152
vt 0.257539 0.474307
vt 0.242461 0.474307
vt 0.254617 0.476149
vt 0.251555 0.477084
vt 0.248445 0.477084
vt 0.245383 0.476149
vt 0.239768 0.471614
vt -0.000000 1.000000
vt 0.737386 0.468152
vt 0.762614 0.468152
vt 0.739768 0.471614
vt 0.742461 0.474307
vt 0.757539 0.474307
vt 0.745383 0.476149
vt 0.748445 0.477084
vt 0.751555 0.477084
vt 0.754617 0.476149
vt 0.760232 0.471614
vt 0.945232 0.151848
vt 0.932619 0.130000
vn -0.8660 -0.0000 0.5000
vn -0.0000 0.0000 -1.0000
vn 0.0000 -1.0000 0.0000
vn 0.8660 0.0000 0.5000
vn -0.8238 0.0000 0.5668
vn -0.7071 0.0000 0.7071
vn -0.5333 0.0000 0.8459
vn -0.2921 0.0000 0.9564
vn 0.0000 0.0000 1.0000
vn 0.2921 -0.0000 0.9564
vn 0.5333 -0.0000 0.8459
vn 0.7071 0.0000 0.7071
vn 0.8238 -0.0000 0.5668
vn 0.0790 0.0000 -0.9969
vn 0.2588 0.0000 -0.9659
vn 0.4660 0.0000 -0.8848
vn 0.6822 0.0000 -0.7312
vn 0.8660 0.0000 -0.5000
vn 0.9743 0.0000 -0.2252
vn 0.9992 -0.0000 0.0389
vn 0.9659 -0.0000 0.2588
vn 0.9028 0.0000 0.4300
vn -0.9028 0.0000 0.4300
vn -0.9659 -0.0000 0.2588
vn -0.9992 0.0000 0.0389
vn -0.9743 0.0000 -0.2252
vn -0.8660 0.0000 -0.5000
vn -0.6822 0.0000 -0.7312
vn -0.4660 0.0000 -0.8848
vn -0.2588 0.0000 -0.9659
vn -0.0790 0.0000 -0.9969
vn 0.0000 1.0000 0.0000
vn 0.0000 1.0000 0.0001
usemtl None
s off
f 51/1/1 1/2/1 42/3/1
f 31/4/2 41/5/2 22/6/2
f 60/7/3 52/8/3 51/9/3
f 11/10/4 21/11/4 2/12/4
f 12/13/5 3/14/5 1/2/5
f 20/15/6 4/16/6 3/14/6
f 19/17/7 5/18/7 4/16/7
f 18/19/8 6/20/8 5/18/8
f 17/21/9 7/22/9 6/20/9
f 16/23/10 8/24/10 7/25/10
f 15/26/11 9/27/11 8/24/11
f 14/28/12 10/29/12 9/27/12
f 13/30/13 2/12/13 10/29/13
f 22/6/14 33/31/14 31/4/14
f 30/32/15 34/33/15 33/31/15
f 29/34/16 35/35/16 34/33/16
f 28/36/17 36/37/17 35/35/17
f 27/38/18 37/39/18 36/37/18
f 26/40/19 38/41/19 37/39/19
f 25/42/20 39/43/20 38/41/20
f 24/44/21 40/45/21 39/43/21
f 23/46/22 32/47/22 40/45/22
f 42/3/23 53/48/23 51/1/23
f 50/49/24 54/50/24 53/48/24
f 49/51/25 55/52/25 54/50/25
f 48/53/26 56/54/26 55/52/26
f 47/55/27 57/56/27 56/54/27
f 46/57/28 58/58/28 57/56/28
f 45/59/29 59/60/29 58/58/29
f 44/61/30 60/7/30 59/60/30
f 43/62/31 52/63/31 60/7/31
f 50/49/32 42/64/32 41/65/32
f 51/1/1 12/13/1 1/2/1
f 31/4/2 52/63/2 41/5/2
f 52/8/3 31/66/3 32/67/3
f 31/66/3 33/31/3 32/67/3
f 33/31/3 34/33/3 39/43/3
f 34/33/3 35/35/3 39/43/3
f 35/35/3 36/37/3 37/39/3
f 37/39/3 38/41/3 35/35/3
f 38/41/3 39/43/3 35/35/3
f 39/43/3 40/45/3 33/31/3
f 40/45/3 32/67/3 33/31/3
f 32/67/3 11/68/3 52/8/3
f 11/68/3 13/69/3 12/70/3
f 52/8/3 11/68/3 12/70/3
f 13/69/3 14/71/3 19/72/3
f 14/71/3 15/73/3 19/72/3
f 15/73/3 16/74/3 17/75/3
f 17/75/3 18/76/3 15/73/3
f 18/76/3 19/72/3 15/73/3
f 19/72/3 20/77/3 13/69/3
f 20/77/3 12/70/3 13/69/3
f 12/70/3 51/9/3 52/8/3
f 51/9/3 53/48/3 60/7/3
f 60/7/3 53/48/3 59/60/3
f 53/48/3 54/50/3 59/60/3
f 54/50/3 55/52/3 59/60/3
f 55/52/3 56/54/3 57/56/3
f 57/56/3 58/58/3 55/52/3
f 58/58/3 59/60/3 55/52/3
f 11/10/4 32/47/4 21/11/4
f 12/13/5 20/15/5 3/14/5
f 20/15/6 19/17/6 4/16/6
f 19/17/7 18/19/7 5/18/7
f 18/19/8 17/21/8 6/20/8
f 17/21/9 16/78/9 7/22/9
f 16/23/10 15/26/10 8/24/10
f 15/26/11 14/28/11 9/27/11
f 14/28/12 13/30/12 10/29/12
f 13/30/13 11/10/13 2/12/13
f 22/6/14 30/32/14 33/31/14
f 30/32/15 29/34/15 34/33/15
f 29/34/16 28/36/16 35/35/16
f 28/36/17 27/38/17 36/37/17
f 27/38/18 26/40/18 37/39/18
f 26/40/19 25/42/19 38/41/19
f 25/42/20 24/44/20 39/43/20
f 24/44/21 23/46/21 40/45/21
f 23/46/22 21/11/22 32/47/22
f 42/3/23 50/49/23 53/48/23
f 50/49/24 49/51/24 54/50/24
f 49/51/25 48/53/25 55/52/25
f 48/53/26 47/55/26 56/54/26
f 47/55/27 46/57/27 57/56/27
f 46/57/28 45/59/28 58/58/28
f 45/59/29 44/61/29 59/60/29
f 44/61/30 43/62/30 60/7/30
f 43/62/31 41/5/31 52/63/31
f 42/64/32 1/79/32 2/80/32
f 1/79/32 3/81/32 2/80/32
f 3/81/32 4/82/32 9/83/32
f 4/82/32 5/84/32 9/83/32
f 5/84/33 6/85/33 7/86/33
f 7/86/32 8/87/32 5/84/32
f 8/87/32 9/83/32 5/84/32
f 9/83/32 10/88/32 3/81/32
f 10/88/32 2/80/32 3/81/32
f 2/80/32 21/89/32 42/64/32
f 21/89/32 23/46/32 22/90/32
f 42/64/32 21/89/32 22/90/32
f 23/46/32 24/44/32 29/34/32
f 24/44/32 25/42/32 29/34/32
f 25/42/32 26/40/32 27/38/32
f 27/38/32 28/36/32 25/42/32
f 28/36/32 29/34/32 25/42/32
f 29/34/32 30/32/32 23/46/32
f 30/32/32 22/90/32 23/46/32
f 22/90/32 41/65/32 42/64/32
f 41/65/32 43/62/32 50/49/32
f 50/49/32 43/62/32 49/51/32
f 43/62/32 44/61/32 49/51/32
f 44/61/32 45/59/32 49/51/32
f 45/59/32 46/57/32 47/55/32
f 47/55/32 48/53/32 45/59/32
f 48/53/32 49/51/32 45/59/32
